<?xml version="1.0" encoding="UTF-8"?>
<!DOCTYPE svg PUBLIC "-//W3C//DTD SVG 1.1//EN" "http://www.w3.org/Graphics/SVG/1.1/DTD/svg11.dtd">
<!-- Creator: CorelDRAW -->
<svg xmlns="http://www.w3.org/2000/svg" xml:space="preserve" width="25.9717in" height="11.6978in" version="1.1" style="shape-rendering:geometricPrecision; text-rendering:geometricPrecision; image-rendering:optimizeQuality; fill-rule:evenodd; clip-rule:evenodd"
viewBox="0 0 25971.7 11697.76"
 xmlns:xlink="http://www.w3.org/1999/xlink"
 xmlns:xodm="http://www.corel.com/coreldraw/odm/2003">
 <defs>
  <style type="text/css">
   <![CDATA[
    .fil1 {fill:#373435;fill-rule:nonzero}
    .fil0 {fill:#5BDFF8;fill-rule:nonzero}
   ]]>
  </style>
   <clipPath id="id0">
    <rect x="8396.76" width="9178.19" height="6649.24"/>
   </clipPath>
 </defs>
 <g id="Layer_x0020_1">
  <metadata id="CorelCorpID_0Corel-Layer"/>
  <path class="fil0" d="M910.72 9663.91c647.95,0 973.42,-322.48 973.42,-704.68 0,-770.87 -1155.56,-561.85 -1155.56,-812.18 0,-71.66 65.69,-131.38 271.72,-131.38 182.14,0 376.23,50.76 582.26,155.27l212 -510.59c-217.97,-122.43 -507.61,-182.14 -788.29,-182.14 -647.95,0 -973.42,316.51 -973.42,704.68 0,779.33 1155.56,566.83 1155.56,830.09 0,71.66 -71.66,113.46 -271.72,113.46 -229.92,0 -492.68,-74.65 -689.75,-191.1l-226.93 513.58c209.02,128.39 561.35,214.99 910.71,214.99z"/>
  <path id="_1" class="fil0" d="M3099.41 7525.97l-1006.26 0 0 2090.16 704.68 0 0 -513.58 301.58 0c582.26,0 952.51,-304.56 952.51,-788.29 0,-483.72 -370.26,-788.29 -952.51,-788.29zm-44.79 1033.13l-256.79 0 0 -489.69 256.79 0c194.09,0 286.65,92.57 286.65,244.85 0,152.28 -92.56,244.85 -286.65,244.85z"/>
  <path id="_2" class="fil0" d="M5532.95 9616.13l752.46 0 -438.93 -644.96c250.82,-128.4 394.14,-355.33 394.14,-656.91 0,-483.72 -370.26,-788.29 -952.51,-788.29l-1006.26 0 0 2090.16 704.68 0 0 -525.52 191.1 0 355.33 525.52zm-2.99 -1301.87c0,152.28 -92.56,244.85 -286.65,244.85l-256.79 0 0 -489.69 256.79 0c194.09,0 286.65,92.57 286.65,244.85z"/>
  <polygon id="_3" class="fil0" points="6506.37,9616.13 7211.05,9616.13 7211.05,7525.97 6506.37,7525.97 "/>
  <polygon id="_4" class="fil0" points="8924.98,7525.97 8924.98,8475.5 8130.72,7525.97 7551.44,7525.97 7551.44,9616.13 8238.21,9616.13 8238.21,8666.6 9032.47,9616.13 9611.74,9616.13 9611.74,7525.97 "/>
  <path id="_5" class="fil0" d="M11334.63 9042.83c-86.59,35.83 -170.2,50.76 -256.79,50.76 -301.58,0 -498.65,-209.02 -498.65,-522.54 0,-322.48 197.07,-522.54 507.61,-522.54 185.13,0 337.41,77.63 468.79,229.92l450.88 -397.13c-212,-259.78 -543.44,-403.1 -955.5,-403.1 -689.75,0 -1182.43,450.87 -1182.43,1092.85 0,641.98 492.68,1092.85 1167.5,1092.85 307.55,0 656.91,-92.56 910.71,-265.75l0 -883.84 -612.11 0 0 528.51z"/>
  <polygon id="_6" class="fil0" points="14980.46,7525.97 14595.27,8729.31 14230.99,7525.97 13583.04,7525.97 13197.85,8714.38 12833.57,7525.97 12107.98,7525.97 12776.83,9616.13 13532.28,9616.13 13887.6,8499.39 14225.02,9616.13 14980.46,9616.13 15649.31,7525.97 "/>
  <path id="_7" class="fil0" d="M17294.56 9616.13l728.57 0 -913.7 -2090.16 -692.74 0 -913.7 2090.16 716.63 0 140.34 -364.28 794.26 0 140.34 364.28zm-740.51 -871.89l203.04 -525.52 203.04 525.52 -406.09 0z"/>
  <polygon id="_8" class="fil0" points="18485.94,9616.13 19190.63,9616.13 19190.63,8072.4 19802.74,8072.4 19802.74,7525.97 17873.83,7525.97 17873.83,8072.4 18485.94,8072.4 "/>
  <polygon id="_9" class="fil0" points="20677.63,9084.63 20677.63,8809.93 21561.46,8809.93 21561.46,8302.32 20677.63,8302.32 20677.63,8057.47 21683.89,8057.47 21683.89,7525.97 19984.89,7525.97 19984.89,9616.13 21722.7,9616.13 21722.7,9084.63 "/>
  <path id="_10" class="fil0" d="M23245.53 9616.13l752.46 0 -438.93 -644.96c250.82,-128.4 394.14,-355.33 394.14,-656.91 0,-483.72 -370.26,-788.29 -952.51,-788.29l-1006.26 0 0 2090.16 704.68 0 0 -525.52 191.1 0 355.33 525.52zm-2.99 -1301.87c0,152.28 -92.56,244.85 -286.65,244.85l-256.79 0 0 -489.69 256.79 0c194.09,0 286.65,92.57 286.65,244.85z"/>
  <path id="_11" class="fil0" d="M24998.28 9663.91c647.95,0 973.42,-322.48 973.42,-704.68 0,-770.87 -1155.56,-561.85 -1155.56,-812.18 0,-71.66 65.69,-131.38 271.72,-131.38 182.14,0 376.23,50.76 582.26,155.27l212 -510.59c-217.97,-122.43 -507.61,-182.14 -788.29,-182.14 -647.95,0 -973.42,316.51 -973.42,704.68 0,779.33 1155.56,566.83 1155.56,830.09 0,71.66 -71.66,113.46 -271.72,113.46 -229.92,0 -492.68,-74.65 -689.75,-191.1l-226.93 513.58c209.02,128.39 561.35,214.99 910.71,214.99z"/>
  <path class="fil1" d="M633.77 11163.15c91.98,-37.37 153.77,-113.54 153.77,-228.5 0,-163.83 -129.34,-258.68 -353.53,-258.68l-434.01 0 0 1005.98 462.76 0c251.5,0 377.96,-97.72 377.96,-268.74 0,-136.53 -77.6,-221.32 -206.94,-250.06zm-206.94 -399.52c160.96,0 254.37,61.8 254.37,182.52 0,120.72 -93.41,182.52 -254.37,182.52l-320.48 0 0 -365.03 320.48 0zm34.49 830.66l-354.97 0 0 -377.96 354.97 0c176.76,0 273.05,57.48 273.05,188.26 0,132.22 -96.29,189.7 -273.05,189.7z"/>
  <path id="_1_0" class="fil1" d="M1523.35 11690.57c301.8,0 527.43,-217 527.43,-511.61 0,-294.61 -225.63,-511.61 -527.43,-511.61 -304.67,0 -528.86,218.44 -528.86,511.61 0,293.17 224.19,511.61 528.86,511.61zm0 -94.85c-242.87,0 -423.95,-176.76 -423.95,-416.76 0,-240 181.07,-416.77 423.95,-416.77 241.44,0 421.08,176.77 421.08,416.77 0,240 -179.64,416.76 -421.08,416.76z"/>
  <path id="_2_1" class="fil1" d="M3092.69 11681.95l-245.75 -344.91c146.59,-47.43 229.94,-158.08 229.94,-316.17 0,-215.57 -155.21,-344.91 -411.02,-344.91l-376.53 0 0 1005.98 106.35 0 0 -319.04 270.18 0c28.74,0 54.61,-1.44 80.48,-4.31l229.94 323.35 116.41 0zm-429.7 -409.58l-267.31 0 0 -504.43 267.31 0c201.2,0 307.54,91.97 307.54,252.93 0,158.08 -106.35,251.5 -307.54,251.5z"/>
  <polygon id="_3_2" class="fil1" points="3434.72,11589.98 3434.72,11216.33 3954.96,11216.33 3954.96,11125.79 3434.72,11125.79 3434.72,10767.94 4018.2,10767.94 4018.2,10675.97 3328.38,10675.97 3328.38,11681.95 4039.76,11681.95 4039.76,11589.98 "/>
  <polygon id="_4_3" class="fil1" points="5025.62,10675.97 5025.62,11124.35 4396.16,11124.35 4396.16,10675.97 4289.81,10675.97 4289.81,11681.95 4396.16,11681.95 4396.16,11217.76 5025.62,11217.76 5025.62,11681.95 5130.53,11681.95 5130.53,10675.97 "/>
  <path id="_5_4" class="fil1" d="M5897.95 11690.57c301.8,0 527.43,-217 527.43,-511.61 0,-294.61 -225.63,-511.61 -527.43,-511.61 -304.67,0 -528.86,218.44 -528.86,511.61 0,293.17 224.19,511.61 528.86,511.61zm0 -94.85c-242.87,0 -423.95,-176.76 -423.95,-416.76 0,-240 181.07,-416.77 423.95,-416.77 241.44,0 421.08,176.77 421.08,416.77 0,240 -179.64,416.76 -421.08,416.76z"/>
  <polygon id="_6_5" class="fil1" points="6663.94,11681.95 7333.64,11681.95 7333.64,11589.98 6770.29,11589.98 6770.29,10675.97 6663.94,10675.97 "/>
  <polygon id="_7_6" class="fil1" points="7616.75,11589.98 7616.75,11216.33 8136.99,11216.33 8136.99,11125.79 7616.75,11125.79 7616.75,10767.94 8200.22,10767.94 8200.22,10675.97 7510.41,10675.97 7510.41,11681.95 8221.78,11681.95 8221.78,11589.98 "/>
  <path id="_8_7" class="fil1" d="M8848.37 11681.95l409.58 0c321.91,0 538.92,-206.94 538.92,-502.99 0,-296.05 -217.01,-502.99 -538.92,-502.99l-409.58 0 0 1005.98zm106.35 -91.98l0 -822.03 297.48 0c267.31,0 439.76,169.58 439.76,411.02 0,241.44 -172.45,411.02 -439.76,411.02l-297.48 0z"/>
  <path id="_9_8" class="fil1" d="M10838.79 11681.95l-245.75 -344.91c146.59,-47.43 229.94,-158.08 229.94,-316.17 0,-215.57 -155.21,-344.91 -411.02,-344.91l-376.53 0 0 1005.98 106.35 0 0 -319.04 270.18 0c28.74,0 54.61,-1.44 80.48,-4.31l229.94 323.35 116.41 0zm-429.7 -409.58l-267.31 0 0 -504.43 267.31 0c201.2,0 307.54,91.97 307.54,252.93 0,158.08 -106.35,251.5 -307.54,251.5z"/>
  <polygon id="_10_9" class="fil1" points="11074.47,11681.95 11180.82,11681.95 11180.82,10675.97 11074.47,10675.97 "/>
  <polygon id="_11_10" class="fil1" points="11508.48,11681.95 12178.19,11681.95 12178.19,11589.98 11614.83,11589.98 11614.83,10675.97 11508.48,10675.97 "/>
  <polygon id="_12" class="fil1" points="12354.95,11681.95 13024.65,11681.95 13024.65,11589.98 12461.3,11589.98 12461.3,10675.97 12354.95,10675.97 "/>
  <polygon id="_13" class="fil1" points="13201.42,11681.95 13307.76,11681.95 13307.76,10675.97 13201.42,10675.97 "/>
  <polygon id="_14" class="fil1" points="14371.24,10675.97 14371.24,11492.25 13723.09,10675.97 13635.43,10675.97 13635.43,11681.95 13741.78,11681.95 13741.78,10865.67 14388.48,11681.95 14476.15,11681.95 14476.15,10675.97 "/>
  <path id="_15" class="fil1" d="M15512.31 11518.12c-77.61,56.05 -166.71,77.6 -263,77.6 -247.19,0 -429.7,-178.2 -429.7,-416.76 0,-240 182.51,-416.77 431.13,-416.77 117.85,0 218.44,34.49 303.23,117.85l66.11 -67.55c-89.1,-96.28 -221.32,-145.15 -373.65,-145.15 -307.54,0 -531.73,217 -531.73,511.61 0,294.61 224.19,511.61 530.3,511.61 139.4,0 274.49,-43.11 369.34,-127.9l0 -383.71 -102.04 0 0 339.16z"/>
  <path id="_16" class="fil1" d="M17070.16 11630.22l-143.71 -148.02c40.24,-63.23 70.42,-140.84 89.1,-231.38l-83.35 -25.87c-14.37,76.17 -37.37,140.84 -67.54,194.01l-275.93 -284.55c163.83,-94.85 224.19,-165.27 224.19,-265.87 0,-125.03 -91.98,-199.76 -234.25,-199.76 -155.21,0 -254.37,86.22 -254.37,214.13 0,77.6 28.75,137.96 126.47,238.56 -183.96,106.35 -252.94,194.01 -252.94,313.29 0,152.33 140.84,255.81 337.73,255.81 136.53,0 251.5,-45.99 336.29,-136.53l139.4 143.71 58.92 -67.54zm-491.5 -885.27c93.41,0 146.59,50.3 146.59,125.03 0,71.85 -47.43,122.15 -192.57,205.51 -91.98,-93.41 -113.53,-135.09 -113.53,-194.01 0,-80.48 58.92,-136.53 159.52,-136.53zm-37.37 860.83c-145.15,0 -242.88,-71.85 -242.88,-181.07 0,-89.1 48.87,-152.33 209.83,-244.31l303.23 311.85c-68.98,76.17 -160.96,113.53 -270.18,113.53z"/>
  <polygon id="_17" class="fil1" points="17629.2,11681.95 17735.54,11681.95 17735.54,10675.97 17629.2,10675.97 "/>
  <path id="_18" class="fil1" d="M18866.56 11681.95l-245.75 -344.91c146.59,-47.43 229.94,-158.08 229.94,-316.17 0,-215.57 -155.21,-344.91 -411.02,-344.91l-376.53 0 0 1005.98 106.35 0 0 -319.04 270.18 0c28.74,0 54.61,-1.44 80.48,-4.31l229.94 323.35 116.41 0zm-429.7 -409.58l-267.31 0 0 -504.43 267.31 0c201.2,0 307.54,91.97 307.54,252.93 0,158.08 -106.35,251.5 -307.54,251.5z"/>
  <path id="_19" class="fil1" d="M19905.61 11681.95l-245.75 -344.91c146.59,-47.43 229.94,-158.08 229.94,-316.17 0,-215.57 -155.21,-344.91 -411.02,-344.91l-376.53 0 0 1005.98 106.35 0 0 -319.04 270.18 0c28.74,0 54.61,-1.44 80.48,-4.31l229.94 323.35 116.41 0zm-429.7 -409.58l-267.31 0 0 -504.43 267.31 0c201.2,0 307.55,91.97 307.55,252.93 0,158.08 -106.35,251.5 -307.55,251.5z"/>
  <polygon id="_20" class="fil1" points="20141.29,11681.95 20247.64,11681.95 20247.64,10675.97 20141.29,10675.97 "/>
  <path id="_21" class="fil1" d="M21283.81 11518.12c-77.61,56.05 -166.71,77.6 -263,77.6 -247.19,0 -429.7,-178.2 -429.7,-416.76 0,-240 182.51,-416.77 431.13,-416.77 117.85,0 218.44,34.49 303.23,117.85l66.11 -67.55c-89.1,-96.28 -221.32,-145.15 -373.65,-145.15 -307.54,0 -531.73,217 -531.73,511.61 0,294.61 224.19,511.61 530.3,511.61 139.4,0 274.49,-43.11 369.34,-127.9l0 -383.71 -102.04 0 0 339.16z"/>
  <path id="_22" class="fil1" d="M22437.81 11681.95l112.1 0 -459.88 -1005.98 -104.91 0 -459.88 1005.98 110.66 0 120.72 -268.74 560.48 0 120.72 268.74zm-642.39 -354.97l241.43 -540.36 241.44 540.36 -482.87 0z"/>
  <polygon id="_23" class="fil1" points="22861.76,11681.95 22968.11,11681.95 22968.11,10767.94 23321.65,10767.94 23321.65,10675.97 22508.23,10675.97 22508.23,10767.94 22861.76,10767.94 "/>
  <polygon id="_24" class="fil1" points="23491.23,11681.95 23597.57,11681.95 23597.57,10675.97 23491.23,10675.97 "/>
  <path id="_25" class="fil1" d="M24365 11690.57c301.8,0 527.43,-217 527.43,-511.61 0,-294.61 -225.63,-511.61 -527.43,-511.61 -304.67,0 -528.86,218.44 -528.86,511.61 0,293.17 224.19,511.61 528.86,511.61zm0 -94.85c-242.87,0 -423.95,-176.76 -423.95,-416.76 0,-240 181.07,-416.77 423.95,-416.77 241.44,0 421.08,176.77 421.08,416.77 0,240 -179.64,416.76 -421.08,416.76z"/>
  <polygon id="_26" class="fil1" points="25866.79,10675.97 25866.79,11492.25 25218.65,10675.97 25130.98,10675.97 25130.98,11681.95 25237.33,11681.95 25237.33,10865.67 25884.04,11681.95 25971.7,11681.95 25971.7,10675.97 "/>
  <g style="clip-path:url(#id0)">
   <image id="SpringWater_x0020_Icon.png" x="8396.76" y="-0" width="9178.19" height="6649.23" xlink:href="SpringWater_Borehole Drilling Harare Zimbabwe Logo_Images\SpringWater_Borehole Drilling Harare Zimbabwe Logo_ImgID1.png"/>
  </g>
 </g>
</svg>
